<svg width="492" height="157" viewBox="0 0 492 157" fill="none" xmlns="http://www.w3.org/2000/svg">
<path d="M86.82 34.82L52.17 0L106.34 0.0800002L141.26 34.89C137.684 38.4653 133.438 41.3001 128.764 43.232C124.091 45.164 119.082 46.155 114.025 46.1485C108.969 46.142 103.963 45.1381 99.2943 43.1942C94.626 41.2502 90.387 38.4045 86.82 34.82Z" fill="#43E296"/>
<path d="M150.15 79.7003C150.124 76.1956 150.724 72.7145 151.92 69.4203C153.035 66.3023 154.784 63.4489 157.056 61.0395C159.327 58.6301 162.073 56.7169 165.12 55.4203C168.559 53.977 172.261 53.2653 175.99 53.3303C178.458 53.312 180.921 53.5499 183.34 54.0403C185.56 54.5185 187.729 55.2048 189.82 56.0903L186.86 67.4203C185.423 66.8751 183.954 66.4209 182.46 66.0603C180.708 65.6624 178.916 65.4711 177.12 65.4903C172.92 65.4903 169.79 66.7936 167.73 69.4003C165.67 72.0069 164.637 75.4403 164.63 79.7003C164.63 84.2136 165.597 87.7103 167.53 90.1903C169.463 92.6702 172.85 93.9103 177.69 93.9103C179.543 93.8987 181.393 93.7382 183.22 93.4303C185.087 93.142 186.914 92.6317 188.66 91.9103L190.66 103.54C188.656 104.341 186.58 104.948 184.46 105.35C181.759 105.88 179.012 106.134 176.26 106.11C172.227 106.225 168.211 105.546 164.44 104.11C161.334 102.89 158.544 100.983 156.28 98.5303C154.125 96.1302 152.53 93.2816 151.61 90.1903C150.598 86.787 150.106 83.2505 150.15 79.7003Z" fill="white"/>
<path d="M230.46 67.2099C229.19 66.8899 227.7 66.5599 225.98 66.2099C224.159 65.8482 222.306 65.6707 220.45 65.6799C219.379 65.6928 218.311 65.773 217.25 65.9199C216.309 66.0169 215.376 66.184 214.46 66.4199V104.75H200.21V57.2899C203.162 56.2857 206.166 55.4444 209.21 54.7699C213.016 53.9341 216.904 53.5315 220.8 53.5699C221.56 53.5699 222.48 53.6199 223.57 53.7199C224.66 53.8199 225.73 53.9399 226.81 54.0999C227.89 54.2599 228.97 54.4499 230.05 54.6699C230.994 54.8495 231.919 55.1208 232.81 55.4799L230.46 67.2099Z" fill="white"/>
<path d="M237.12 80.0801C237.038 76.097 237.734 72.1363 239.17 68.4201C240.386 65.3073 242.215 62.471 244.55 60.0801C246.735 57.8833 249.349 56.1607 252.23 55.0201C255.068 53.8896 258.095 53.3093 261.15 53.3101C268.263 53.3101 273.887 55.4867 278.02 59.8401C282.153 64.1934 284.22 70.5967 284.22 79.0501C284.22 79.8801 284.22 80.7901 284.13 81.7701C284.04 82.7501 284 83.6301 283.93 84.3901H251.71C251.826 85.7893 252.255 87.1447 252.964 88.3562C253.674 89.5677 254.646 90.6045 255.81 91.3901C258.217 93.1101 261.457 93.9701 265.53 93.9701C268.107 93.9731 270.678 93.7321 273.21 93.2501C275.322 92.8728 277.385 92.2589 279.36 91.4201L281.26 102.96C280.277 103.424 279.257 103.805 278.21 104.1C276.817 104.513 275.401 104.847 273.97 105.1C272.41 105.393 270.743 105.633 268.97 105.82C267.196 106.008 265.414 106.102 263.63 106.1C259.615 106.19 255.62 105.511 251.86 104.1C248.726 102.903 245.892 101.032 243.56 98.6201C241.351 96.2797 239.688 93.4793 238.69 90.4201C237.614 87.0801 237.084 83.5887 237.12 80.0801ZM270.46 74.6501C270.401 73.4522 270.192 72.2664 269.84 71.1201C269.501 70.0237 268.951 69.0045 268.22 68.1201C267.457 67.2044 266.515 66.4555 265.45 65.9201C264.157 65.3121 262.738 65.0208 261.31 65.0701C259.9 65.033 258.5 65.3097 257.21 65.8801C256.114 66.3793 255.138 67.1092 254.35 68.0201C253.569 68.9321 252.969 69.9841 252.58 71.1201C252.174 72.2841 251.872 73.4822 251.68 74.7001L270.46 74.6501Z" fill="white"/>
<path d="M313.21 53.2901C316.761 53.1949 320.304 53.6778 323.7 54.7201C326.256 55.5098 328.578 56.9181 330.46 58.8201C332.172 60.6503 333.402 62.877 334.04 65.3001C334.747 68.0734 335.083 70.9283 335.04 73.7901V103.35C333.04 103.79 330.18 104.35 326.56 104.92C322.205 105.576 317.804 105.881 313.4 105.83C310.438 105.856 307.481 105.568 304.58 104.97C302.146 104.484 299.83 103.529 297.76 102.16C295.871 100.874 294.356 99.1111 293.37 97.0501C292.29 94.6236 291.77 91.9849 291.85 89.3301C291.772 86.7384 292.379 84.172 293.61 81.8901C294.75 79.8995 296.374 78.2281 298.33 77.0301C300.421 75.7791 302.711 74.8963 305.1 74.4201C307.704 73.874 310.359 73.6025 313.02 73.6101C314.66 73.5999 316.299 73.68 317.93 73.8501C319.121 73.9359 320.302 74.1267 321.46 74.4201V73.1201C321.508 72.0523 321.338 70.9859 320.962 69.9856C320.585 68.9852 320.01 68.0716 319.27 67.3001C317.803 65.8401 315.26 65.1101 311.64 65.1101C309.247 65.1099 306.857 65.2871 304.49 65.6401C302.409 65.9228 300.362 66.4153 298.38 67.1101L296.57 55.6701C297.4 55.4201 298.43 55.1501 299.67 54.8601C300.91 54.5701 302.26 54.3201 303.67 54.1001C305.08 53.8801 306.67 53.6801 308.3 53.5301C309.93 53.3801 311.55 53.2901 313.21 53.2901ZM314.35 94.8601C315.75 94.8601 317.09 94.8601 318.35 94.7701C319.371 94.7281 320.389 94.6313 321.4 94.4801V83.7101C320.547 83.5361 319.686 83.406 318.82 83.3201C317.777 83.2026 316.729 83.1392 315.68 83.1301C314.419 83.1251 313.16 83.2053 311.91 83.3701C310.833 83.4982 309.785 83.8058 308.81 84.2801C307.962 84.6868 307.237 85.3114 306.71 86.0901C306.174 86.9449 305.909 87.9419 305.95 88.9501C305.95 91.1768 306.697 92.7168 308.19 93.5701C310.098 94.5231 312.22 94.9675 314.35 94.8601Z" fill="white"/>
<path d="M347.46 42.1298L361.67 39.8398V54.6198H378.74V66.4198H361.65V84.0898C361.53 86.5702 362.072 89.0379 363.22 91.2398C364.273 93.0198 366.387 93.9098 369.56 93.9098C371.143 93.9016 372.722 93.7578 374.28 93.4798C375.794 93.2218 377.28 92.8234 378.72 92.2898L380.72 103.35C378.86 104.092 376.948 104.697 375 105.16C372.462 105.713 369.867 105.968 367.27 105.92C363.989 106.024 360.718 105.491 357.64 104.35C355.27 103.423 353.171 101.913 351.54 99.9598C349.958 97.9711 348.865 95.6384 348.35 93.1498C347.716 90.2365 347.411 87.2612 347.44 84.2798L347.46 42.1298Z" fill="white"/>
<path d="M437.46 79.6C437.505 83.2765 436.93 86.9343 435.76 90.42C434.695 93.5341 432.992 96.3917 430.76 98.81C428.583 101.139 425.934 102.976 422.99 104.2C416.488 106.733 409.272 106.733 402.77 104.2C399.826 102.976 397.177 101.139 395 98.81C392.789 96.3741 391.086 93.5218 389.99 90.42C388.747 86.9465 388.134 83.2789 388.18 79.59C388.133 75.9162 388.764 72.2653 390.04 68.82C391.179 65.7344 392.931 62.9111 395.19 60.52C397.401 58.2246 400.059 56.4072 403 55.18C409.371 52.647 416.469 52.647 422.84 55.18C425.773 56.4003 428.42 58.219 430.61 60.52C432.834 62.919 434.552 65.742 435.66 68.82C436.903 72.2761 437.512 75.9277 437.46 79.6ZM422.97 79.6C422.97 75.22 422.097 71.7733 420.35 69.26C419.528 68.0433 418.408 67.0578 417.097 66.3977C415.786 65.7376 414.327 65.4251 412.86 65.49C411.388 65.4296 409.926 65.7439 408.608 66.4032C407.291 67.0626 406.163 68.0456 405.33 69.26C403.55 71.7667 402.66 75.2133 402.66 79.6C402.66 83.9867 403.55 87.47 405.33 90.05C406.148 91.2858 407.271 92.2901 408.589 92.9662C409.908 93.6423 411.379 93.9673 412.86 93.91C414.336 93.9711 415.802 93.6475 417.116 92.9707C418.429 92.294 419.543 91.2875 420.35 90.05C422.11 87.47 422.987 83.9867 422.98 79.6H422.97Z" fill="white"/>
<path d="M448.46 56.3398C451.531 55.4877 454.65 54.8198 457.8 54.3398C461.771 53.7287 465.783 53.4277 469.8 53.4398C473.429 53.3396 477.045 53.9196 480.46 55.1498C483.076 56.1059 485.393 57.7338 487.18 59.8698C488.88 61.991 490.086 64.4642 490.71 67.1098C491.423 70.1741 491.759 73.314 491.71 76.4598V104.78H477.52V78.1698C477.52 73.6031 476.917 70.3631 475.71 68.4498C474.5 66.5398 472.25 65.5898 468.94 65.5898C467.94 65.5898 466.84 65.5898 465.7 65.7298C464.56 65.8698 463.54 65.9398 462.65 66.0598V104.78H448.46V56.3398Z" fill="white"/>
<path d="M79.27 128.81L28.57 78.11L106.34 0.11L52.17 0L0.669983 51.51V104.69L52.05 156.04H106.56L139.77 122.83C136.192 119.249 131.943 116.408 127.266 114.47C122.59 112.532 117.577 111.535 112.515 111.535C107.453 111.535 102.44 112.532 97.7635 114.47C93.087 116.408 88.8382 119.249 85.26 122.83L79.27 128.81Z" fill="white"/>
<path d="M85.33 122.76L52.05 156.04H106.56L139.77 122.83L139.7 122.76C136.131 119.188 131.893 116.355 127.229 114.421C122.564 112.488 117.564 111.493 112.515 111.493C107.466 111.493 102.466 112.488 97.8013 114.421C93.1368 116.355 88.8989 119.188 85.33 122.76Z" fill="white"/>
<path d="M28.57 78.1099L0.669998 51.3999L0.130005 104.34L52.05 156.04L79.27 128.81L28.57 78.1099Z" fill="#43E296"/>
<path opacity="0.3" d="M0.669983 51.3999L28.57 78.1099L40.28 66.3599L0.669983 51.3999Z" fill="#42389D"/>
<path d="M79.27 128.81L52.05 156.04L40.2 144.78L79.27 128.81Z" fill="#27B76F"/>
<path d="M79.5237 51.8117L53.5092 77.8262L79.5237 103.841L105.538 77.8262L79.5237 51.8117Z" fill="#43E296"/>
<path d="M106.34 0.0800781L79.32 27.2001L88.19 35.4701L106.34 0.0800781Z" fill="#27B76F"/>
</svg>
